<?xml version="1.0" encoding="UTF-8"?>
<svg id="Layer_1" data-name="Layer 1" xmlns="http://www.w3.org/2000/svg" version="1.1" viewBox="0 0 171.2 62.5">
  <defs>
    <style>
      .cls-1 {
        fill: #fff;
        stroke-width: 0px;
      }
    </style>
  </defs>
  <path class="cls-1" d="M24.8,47.5V10.7h7.6c3.5,0,6.4-2.9,6.4-6.4V1.3H6.4C2.9,1.3,0,4.2,0,7.7v2.9h14.1v36.8h10.7Z"/>
  <path class="cls-1" d="M99.6,18.4c-1.3-1.6-2.9-2.9-4.7-3.8-1.8-.9-3.8-1.4-6-1.4s-4.8.5-6.7,1.6c-1.9,1.1-3.4,2.6-4.5,4.6V0h-10.4v47.5h9v-5.7c1.1,2,2.7,3.5,4.6,4.7,2,1.1,4.2,1.7,6.8,1.7s4.4-.4,6.3-1.3c1.9-.9,3.6-2.1,5-3.7,1.4-1.6,2.5-3.4,3.4-5.5.8-2.1,1.2-4.4,1.2-6.8s-.4-4.8-1.1-6.9c-.7-2.1-1.8-4-3.1-5.6ZM92.5,34.2c-.4,1-1,1.9-1.7,2.7-.7.8-1.6,1.4-2.6,1.8-1,.4-2.1.7-3.3.7s-1.4-.1-2.1-.3c-.7-.2-1.4-.5-2-.9-.6-.4-1.2-.9-1.7-1.4-.5-.6-1-1.2-1.3-1.9v-6.9c.5-1.1,1.1-2.1,1.9-2.9.8-.9,1.7-1.5,2.7-2.1,1-.5,2-.8,3.1-.8s2.9.4,4,1.2c1.1.8,2,1.9,2.7,3.2.7,1.3,1,2.8,1,4.4s-.2,2.4-.6,3.4Z"/>
  <path class="cls-1" d="M127.1,13.7l-7.1,22.4-7.6-22.4h-10.7l10,25.9c3,7.8,6,1.8,6.2,1.3l-2.4,7.2c-.6,1.5-1.7,3.6-3.4,4.8-.6.4-1.3.5-2.1.5s-1.3,0-2-.2c-.8-.2-1.6-.4-2.4-.6v8.9c.9.3,1.8.6,2.7.7.9.1,1.8.2,2.7.2,2.1,0,4.1-.4,5.9-1.2,1.8-.8,3.3-1.9,4.6-3.3,1.3-1.4,2.2-3.1,2.8-4.9l13-39.3h-9.8Z"/>
  <path class="cls-1" d="M170,24c-.8-2.1-2-4-3.6-5.6-1.6-1.6-3.5-2.9-5.7-3.8-2.3-.9-4.8-1.4-7.7-1.4s-5.5.5-7.8,1.4c-2.3.9-4.2,2.2-5.8,3.8-1.6,1.6-2.7,3.5-3.5,5.6-.8,2.1-1.2,4.3-1.2,6.7s.4,4.5,1.2,6.6c.8,2.1,2,4,3.5,5.6,1.6,1.6,3.5,2.9,5.8,3.8,2.3.9,4.9,1.4,7.8,1.4s5.5-.5,7.7-1.4c2.3-.9,4.2-2.2,5.7-3.8,1.6-1.6,2.8-3.5,3.6-5.6.8-2.1,1.2-4.3,1.2-6.6s-.4-4.6-1.2-6.7ZM159.5,35.2c-.7,1.3-1.6,2.3-2.7,3.1-1.1.7-2.4,1.1-3.9,1.1s-2.8-.4-3.9-1.1c-1.1-.7-2-1.7-2.7-3-.7-1.3-1-2.8-1-4.5s.3-3.2,1-4.6c.7-1.3,1.6-2.3,2.7-3,1.1-.7,2.4-1.1,3.9-1.1s2.7.4,3.9,1.1c1.1.7,2.1,1.7,2.7,3,.7,1.3,1,2.8,1,4.6s-.3,3.2-1,4.5Z"/>
  <path class="cls-1" d="M53.1,30.8c.2,3,1.4,5.5,2.7,7.5,1.7,2.5,5.6,2.1,6.7-.7,0,0,0,0,0,0,.8-2.1,1.2-4.3,1.2-6.7s-.4-4.5-1.2-6.6c-.8-2.1-2-4-3.5-5.6-1.6-1.6-3.5-2.9-5.8-3.8-2.3-.9-4.9-1.4-7.8-1.4-6.7,0-10.9,3.6-10.9,3.6,0,0,18.6-6,18.5,13.8Z"/>
  <path class="cls-1" d="M39.6,30c-.2-3-1.4-5.5-2.7-7.5-1.7-2.5-5.6-2.1-6.7.7h0c-.8,2.1-1.2,4.4-1.2,6.7s.4,4.5,1.2,6.6c.8,2.1,2,4,3.5,5.6,1.6,1.6,3.5,2.9,5.8,3.8,2.3.9,4.9,1.4,7.8,1.4,6.7,0,10.9-3.6,10.9-3.6,0,0-18.6,6-18.5-13.8Z"/>
</svg>