<?xml version="1.0" encoding="UTF-8"?>
<svg id="Layer_1" data-name="Layer 1" xmlns="http://www.w3.org/2000/svg" version="1.1" xmlns:xlink="http://www.w3.org/1999/xlink" viewBox="0 0 201 73.6">
  <defs>
    <style>
      .cls-1 {
        fill: url(#linear-gradient);
      }

      .cls-1, .cls-2, .cls-3, .cls-4, .cls-5, .cls-6, .cls-7, .cls-8 {
        stroke-width: 0px;
      }

      .cls-2 {
        fill: url(#linear-gradient-6);
      }

      .cls-3 {
        fill: url(#linear-gradient-5);
      }

      .cls-4 {
        fill: url(#linear-gradient-2);
      }

      .cls-5 {
        fill: url(#linear-gradient-7);
      }

      .cls-6 {
        fill: url(#linear-gradient-3);
      }

      .cls-7 {
        fill: url(#linear-gradient-8);
      }

      .cls-8 {
        fill: url(#linear-gradient-4);
      }
    </style>
    <linearGradient id="linear-gradient" x1="118.8" y1="-26" x2="118.8" y2="86.3" gradientUnits="userSpaceOnUse">
      <stop offset="0" stop-color="#1d47dc"/>
      <stop offset=".6" stop-color="#1db3ff"/>
      <stop offset=".7" stop-color="#2bbcff"/>
      <stop offset=".9" stop-color="#53d4ff"/>
      <stop offset="1" stop-color="#70e7ff"/>
    </linearGradient>
    <linearGradient id="linear-gradient-2" x1="83.3" y1="-26" x2="83.3" y2="86.3" xlink:href="#linear-gradient"/>
    <linearGradient id="linear-gradient-3" x1="97.9" y1="-26" x2="97.9" y2="86.3" xlink:href="#linear-gradient"/>
    <linearGradient id="linear-gradient-4" x1="62.8" y1="-26" x2="62.8" y2="86.3" xlink:href="#linear-gradient"/>
    <linearGradient id="linear-gradient-5" x1="180.2" y1="-26" x2="180.2" y2="86.3" xlink:href="#linear-gradient"/>
    <linearGradient id="linear-gradient-6" x1="194.7" y1="-26" x2="194.7" y2="86.3" xlink:href="#linear-gradient"/>
    <linearGradient id="linear-gradient-7" x1="163.8" y1="-26" x2="163.8" y2="86.3" xlink:href="#linear-gradient"/>
    <linearGradient id="linear-gradient-8" x1="153.7" y1="-26" x2="153.7" y2="86.3" xlink:href="#linear-gradient"/>
  </defs>
  <path class="cls-1" d="M121.3,61.3c-.8-.3-1.6-.5-2.4-.5s-1.7.2-2.4.5c-.7.3-1.4.8-2,1.3-.6.6-1,1.2-1.4,2-.3.8-.5,1.6-.5,2.4s.2,1.7.5,2.4c.3.8.8,1.4,1.3,2,.6.6,1.2,1,2,1.4.8.3,1.6.5,2.4.5s1.7-.2,2.4-.5c.7-.3,1.4-.8,2-1.4.6-.6,1-1.2,1.4-2,.3-.8.5-1.6.5-2.4s-.2-1.7-.5-2.4c-.3-.8-.8-1.4-1.4-2-.6-.6-1.2-1-2-1.3Z"/>
  <path class="cls-4" d="M89.1,69.7c.3-.8.5-1.6.5-2.4s-.2-1.7-.5-2.4c-.3-.8-.8-1.4-1.3-2-.6-.6-1.2-1-2-1.3-.8-.3-1.6-.5-2.4-.5s-1.7.2-2.4.5c-.7.3-1.4.8-2,1.3-.6.6-1,1.2-1.4,2-.3.8-.5,1.6-.5,2.4s.2,1.7.5,2.4c.3.8.8,1.4,1.4,2,.6.6,1.2,1,2,1.4.8.3,1.6.5,2.4.5s1.7-.2,2.4-.5c.8-.3,1.4-.8,2-1.4.6-.6,1-1.2,1.3-2Z"/>
  <path class="cls-6" d="M100.4,73.1c.8-.3,1.4-.8,2-1.4.6-.6,1-1.2,1.3-2,.3-.8.5-1.6.5-2.4s-.2-1.7-.5-2.4c-.3-.8-.8-1.4-1.3-2-.6-.6-1.2-1-2-1.3-.8-.3-1.6-.5-2.4-.5s-1.7.2-2.4.5c-.7.3-1.4.8-2,1.3-.6.6-1,1.2-1.4,2-.3.8-.5,1.6-.5,2.4s.2,1.7.5,2.4c.3.8.8,1.4,1.4,2,.6.6,1.2,1,2,1.4.8.3,1.6.5,2.4.5s1.7-.2,2.4-.5Z"/>
  <path class="cls-8" d="M88.8,54c.6-.1,2.4-.6,3.7-2.1v2.1h24.7c4.6,0,8.3-3.7,8.3-8.3v-28.6h-3.6c-4.4,0-8,3.6-8,8v18.5h-8.9c-1.3,0-2.4-.1-3.3-.3-.8-.2-1.5-.5-2-.9-.5-.4-.8-.9-1-1.5-.2-.7-.3-1.5-.3-2.5v-21.4h-3.6c-4.4,0-8,3.6-8,8v14.3c0,1,0,1.7-.2,2.3-.1.5-.4.9-.7,1.2-.3.3-.8.5-1.3.6-.6.1-1.4.2-2.3.2h-48.4v-5.9c0-3.1-.3-6.1-.8-8.7-.6-2.6-1.5-5-2.8-6.9-1.3-1.9-3-3.5-5.2-4.5-2.1-1.1-4.7-1.6-7.8-1.6s-5.2.5-7.3,1.6c-2.1,1-3.9,2.4-5.4,4.1-1.4,1.7-2.6,3.7-3.3,5.8-.8,2.2-1.1,4.4-1.1,6.7s.4,5.8,1.3,7.9c.8,2.2,2,4,3.5,5.3,1.5,1.4,3.3,2.4,5.4,3,.1,0,.3,0,.4.1,1.5.4,3.2.6,4.8.6s3.1-.2,4.6-.5l1.5-.4c0,.3,0,.7,0,1.1-.1,1.7-.4,4.5-.7,5.2-.4,1-1.1,1.9-2.2,2.8-1.1.8-2.6,1.6-4.5,2.1-1.9.6-4.5.8-7.7.8h-2.4v10.9h3c4.9,0,9-.5,12.2-1.4,3.2-.9,5.8-2.2,7.8-3.9,2-1.7,3.4-3.8,4.4-6.3.9-2.3,1.5-4.9,1.9-7.7h55.6ZM23.1,40.5c-1.2.2-5.2.6-5.7.6-.4,0-.7,0-1.1,0-2.1,0-3.7-.5-4.7-1.6-1-1-1.5-2.7-1.5-5.1s.1-2.3.3-3.3c.2-1,.5-1.8.9-2.5,1-1.7,3.4-2.3,5.1-2.3s.5,0,.7,0c1.8.2,3.9,1,4.8,2.5.4.8.7,1.7.9,2.7.2,1.1.3,2.3.3,3.6v5.2Z"/>
  <path class="cls-3" d="M175.8,10.7c.6.6,1.2,1,2,1.3.8.3,1.6.5,2.4.5s1.7-.2,2.4-.5c.8-.3,1.4-.8,2-1.4.6-.6,1-1.2,1.3-2,.3-.8.5-1.6.5-2.4s-.2-1.7-.5-2.4c-.3-.7-.8-1.4-1.3-2-.6-.6-1.2-1-2-1.4-.8-.3-1.6-.5-2.4-.5s-1.7.2-2.4.5c-.8.3-1.4.8-2,1.4-.6.6-1,1.2-1.4,2-.3.8-.5,1.6-.5,2.4s.2,1.7.5,2.4c.3.8.8,1.4,1.4,2Z"/>
  <path class="cls-2" d="M200.5,3.9c-.3-.7-.8-1.4-1.3-2-.6-.6-1.2-1-2-1.4-.8-.3-1.6-.5-2.4-.5s-1.7.2-2.4.5c-.8.3-1.4.8-2,1.4-.6.6-1,1.2-1.4,2-.3.8-.5,1.6-.5,2.4s.2,1.7.5,2.4c.3.8.8,1.4,1.4,2,.6.6,1.2,1,2,1.3.8.3,1.6.5,2.4.5s1.7-.2,2.4-.5c.8-.3,1.4-.8,2-1.4.6-.6,1-1.2,1.3-2,.3-.8.5-1.6.5-2.4s-.2-1.7-.5-2.4Z"/>
  <path class="cls-5" d="M182.1,25.1v18.5h-19.9c-1.9,0-3.7,0-5.6,0h0c-.3,0-.6,0-.9,0-.3,0-.6,0-.9,0-1.7,0-3.5,0-5-1.2h0c-3.5-2.5-4-6.5-4.6-10.6-.4-3.1-.9-6.3-2.7-8.9-.8-1.2-2.1-1.9-3.5-1.9s-3.3,1.1-4,2.7h0c-.8,2.1-1.2,4.4-1.2,6.8s.4,4.6,1.2,6.7c.8,2.1,2,4,3.6,5.6,1.6,1.6,3.5,2.9,5.8,3.9,2.3.9,4.9,1.4,7.8,1.4s.6,0,.9,0v5.3c-.2,1-.4,2.1-.8,3.1-.4,1-1.1,1.9-2.2,2.8-1.1.8-2.6,1.6-4.5,2.1-1.9.6-4.5.8-7.7.8h-2.4v10.9h3c4.9,0,9-.5,12.2-1.4,3.2-.9,5.8-2.2,7.8-3.9,2-1.7,3.4-3.8,4.4-6.3.9-2.3,1.5-4.9,1.9-7.7h20.8c4.6,0,8.3-3.7,8.3-8.3v-28.6h-3.6c-4.4,0-8,3.6-8,8Z"/>
  <path class="cls-7" d="M150.1,17.6c2.6,1,4.7,2.9,5.9,5.4,1.3,2.6,1.3,5.5,1.6,8.3,0,0,0,.2,0,.3.3,2.8,1.1,5.2,2.7,7.6,1.7,2.6,5.7,2.2,6.8-.7,0,0,0,0,0,0,.8-2.1,1.2-4.4,1.2-6.7s-.4-4.6-1.2-6.7c-.8-2.1-2-4-3.6-5.6-1.6-1.6-3.5-2.9-5.8-3.9-2.3-.9-4.9-1.4-7.9-1.4-6.7,0-11,3.6-11,3.6,3.5-1.1,7.7-1.3,11.2,0Z"/>
</svg>